<mxfile host="app.diagrams.net" modified="2020-12-04T20:26:50.619Z" agent="5.0 (Macintosh)" etag="MrlNodQJFJ70D4RsWXmD" version="13.8.1" type="github">
  <diagram id="MgJpeyHIjZecuuSLrilR" name="Page-1">
    <mxGraphModel dx="1298" dy="800" grid="1" gridSize="10" guides="1" tooltips="1" connect="1" arrows="1" fold="1" page="1" pageScale="1" pageWidth="850" pageHeight="1100" math="0" shadow="0">
      <root>
        <mxCell id="0" />
        <mxCell id="1" parent="0" />
        <mxCell id="mK5insQkdaCz2ZFfUAAH-7" style="edgeStyle=orthogonalEdgeStyle;rounded=0;orthogonalLoop=1;jettySize=auto;html=1;exitX=1;exitY=0.5;exitDx=0;exitDy=0;entryX=0;entryY=0.25;entryDx=0;entryDy=0;" parent="1" source="mK5insQkdaCz2ZFfUAAH-3" target="mK5insQkdaCz2ZFfUAAH-6" edge="1">
          <mxGeometry relative="1" as="geometry" />
        </mxCell>
        <mxCell id="mK5insQkdaCz2ZFfUAAH-3" value="Top 1 Hypothesis" style="rounded=0;whiteSpace=wrap;html=1;" parent="1" vertex="1">
          <mxGeometry x="20" y="212.5" width="140" height="40" as="geometry" />
        </mxCell>
        <mxCell id="mK5insQkdaCz2ZFfUAAH-8" style="edgeStyle=orthogonalEdgeStyle;rounded=0;orthogonalLoop=1;jettySize=auto;html=1;exitX=1;exitY=0.5;exitDx=0;exitDy=0;" parent="1" source="mK5insQkdaCz2ZFfUAAH-4" edge="1">
          <mxGeometry relative="1" as="geometry">
            <mxPoint x="260" y="302.5" as="targetPoint" />
          </mxGeometry>
        </mxCell>
        <mxCell id="mK5insQkdaCz2ZFfUAAH-4" value="&lt;div&gt;Top 5 Hypotheses&lt;/div&gt;" style="rounded=0;whiteSpace=wrap;html=1;" parent="1" vertex="1">
          <mxGeometry x="20" y="292.5" width="140" height="90" as="geometry" />
        </mxCell>
        <mxCell id="mK5insQkdaCz2ZFfUAAH-13" style="edgeStyle=orthogonalEdgeStyle;rounded=0;orthogonalLoop=1;jettySize=auto;html=1;exitX=1;exitY=0.5;exitDx=0;exitDy=0;entryX=0;entryY=0.5;entryDx=0;entryDy=0;" parent="1" source="mK5insQkdaCz2ZFfUAAH-5" target="mK5insQkdaCz2ZFfUAAH-12" edge="1">
          <mxGeometry relative="1" as="geometry" />
        </mxCell>
        <mxCell id="mK5insQkdaCz2ZFfUAAH-5" value="&lt;div&gt;Top-1 Query Embedding&lt;/div&gt;" style="rounded=0;whiteSpace=wrap;html=1;" parent="1" vertex="1">
          <mxGeometry x="450" y="207.5" width="140" height="45" as="geometry" />
        </mxCell>
        <mxCell id="mK5insQkdaCz2ZFfUAAH-10" style="edgeStyle=orthogonalEdgeStyle;rounded=0;orthogonalLoop=1;jettySize=auto;html=1;exitX=1;exitY=0.25;exitDx=0;exitDy=0;entryX=0;entryY=0.5;entryDx=0;entryDy=0;" parent="1" source="mK5insQkdaCz2ZFfUAAH-6" target="mK5insQkdaCz2ZFfUAAH-5" edge="1">
          <mxGeometry relative="1" as="geometry" />
        </mxCell>
        <mxCell id="mK5insQkdaCz2ZFfUAAH-11" style="edgeStyle=orthogonalEdgeStyle;rounded=0;orthogonalLoop=1;jettySize=auto;html=1;exitX=1;exitY=0.75;exitDx=0;exitDy=0;entryX=0;entryY=0.5;entryDx=0;entryDy=0;" parent="1" source="mK5insQkdaCz2ZFfUAAH-6" target="mK5insQkdaCz2ZFfUAAH-9" edge="1">
          <mxGeometry relative="1" as="geometry" />
        </mxCell>
        <mxCell id="mK5insQkdaCz2ZFfUAAH-6" value="Query Embedder" style="rounded=1;whiteSpace=wrap;html=1;" parent="1" vertex="1">
          <mxGeometry x="260" y="262.5" width="120" height="60" as="geometry" />
        </mxCell>
        <mxCell id="mK5insQkdaCz2ZFfUAAH-15" style="edgeStyle=orthogonalEdgeStyle;rounded=0;orthogonalLoop=1;jettySize=auto;html=1;exitX=1;exitY=0.5;exitDx=0;exitDy=0;entryX=0;entryY=0.5;entryDx=0;entryDy=0;" parent="1" source="mK5insQkdaCz2ZFfUAAH-9" target="mK5insQkdaCz2ZFfUAAH-14" edge="1">
          <mxGeometry relative="1" as="geometry" />
        </mxCell>
        <mxCell id="mK5insQkdaCz2ZFfUAAH-9" value="&lt;div&gt;Top-5 Query Embedding&lt;/div&gt;" style="rounded=0;whiteSpace=wrap;html=1;" parent="1" vertex="1">
          <mxGeometry x="450" y="307.5" width="140" height="75" as="geometry" />
        </mxCell>
        <mxCell id="mK5insQkdaCz2ZFfUAAH-17" style="edgeStyle=orthogonalEdgeStyle;rounded=0;orthogonalLoop=1;jettySize=auto;html=1;exitX=1;exitY=0.5;exitDx=0;exitDy=0;entryX=0;entryY=0.25;entryDx=0;entryDy=0;" parent="1" source="mK5insQkdaCz2ZFfUAAH-12" target="mK5insQkdaCz2ZFfUAAH-16" edge="1">
          <mxGeometry relative="1" as="geometry" />
        </mxCell>
        <mxCell id="mK5insQkdaCz2ZFfUAAH-12" value="Original" style="triangle;whiteSpace=wrap;html=1;" parent="1" vertex="1">
          <mxGeometry x="630" y="190" width="60" height="80" as="geometry" />
        </mxCell>
        <mxCell id="b-qWWCd-7I2Kim5GBcaW-5" style="edgeStyle=orthogonalEdgeStyle;rounded=0;orthogonalLoop=1;jettySize=auto;html=1;exitX=1;exitY=0.5;exitDx=0;exitDy=0;" edge="1" parent="1" source="mK5insQkdaCz2ZFfUAAH-14" target="b-qWWCd-7I2Kim5GBcaW-2">
          <mxGeometry relative="1" as="geometry" />
        </mxCell>
        <mxCell id="mK5insQkdaCz2ZFfUAAH-14" value="N-best only" style="triangle;whiteSpace=wrap;html=1;" parent="1" vertex="1">
          <mxGeometry x="630" y="307.5" width="70" height="72.5" as="geometry" />
        </mxCell>
        <mxCell id="mK5insQkdaCz2ZFfUAAH-20" style="edgeStyle=orthogonalEdgeStyle;rounded=0;orthogonalLoop=1;jettySize=auto;html=1;exitX=1;exitY=0.5;exitDx=0;exitDy=0;" parent="1" source="mK5insQkdaCz2ZFfUAAH-16" target="mK5insQkdaCz2ZFfUAAH-19" edge="1">
          <mxGeometry relative="1" as="geometry" />
        </mxCell>
        <mxCell id="mK5insQkdaCz2ZFfUAAH-16" value="Fusion" style="rounded=0;whiteSpace=wrap;html=1;" parent="1" vertex="1">
          <mxGeometry x="840" y="262.5" width="120" height="60" as="geometry" />
        </mxCell>
        <mxCell id="mK5insQkdaCz2ZFfUAAH-19" value="Mixed" style="triangle;whiteSpace=wrap;html=1;" parent="1" vertex="1">
          <mxGeometry x="1020" y="252.5" width="60" height="80" as="geometry" />
        </mxCell>
        <mxCell id="b-qWWCd-7I2Kim5GBcaW-6" style="edgeStyle=orthogonalEdgeStyle;rounded=0;orthogonalLoop=1;jettySize=auto;html=1;exitX=0.5;exitY=0;exitDx=0;exitDy=0;entryX=0;entryY=0.75;entryDx=0;entryDy=0;" edge="1" parent="1" source="b-qWWCd-7I2Kim5GBcaW-2" target="mK5insQkdaCz2ZFfUAAH-16">
          <mxGeometry relative="1" as="geometry" />
        </mxCell>
        <mxCell id="b-qWWCd-7I2Kim5GBcaW-2" value="&lt;div&gt;ConstMultiplier Layer&lt;/div&gt;" style="rounded=0;whiteSpace=wrap;html=1;rotation=90;" vertex="1" parent="1">
          <mxGeometry x="700" y="357.5" width="150" height="22.5" as="geometry" />
        </mxCell>
      </root>
    </mxGraphModel>
  </diagram>
</mxfile>
